<svg width="120" height="120" viewBox="0 0 120 120" fill="none" xmlns="http://www.w3.org/2000/svg">
<path d="M25.8408 68.748C18.2424 68.748 12.0816 74.7624 12.0816 82.176C12.0816 89.5896 18.24 95.5992 25.8408 95.5992C33.4416 95.5992 39.6024 89.5896 39.6024 82.176C39.6024 74.7624 33.4392 68.748 25.8408 68.748ZM25.8408 91.1592C20.7552 91.1592 16.632 87.1344 16.632 82.176C16.632 77.2176 20.7552 73.1928 25.8408 73.1928C30.9264 73.1928 35.0496 77.2152 35.0496 82.176C35.0496 87.1368 30.9264 91.1592 25.8408 91.1592Z" fill="#CCB290"/>
<path d="M25.8408 74.4937C21.4512 74.4937 17.8992 77.9592 17.8992 82.2432C17.8992 86.5272 21.4512 89.9928 25.8408 89.9928C30.2304 89.9928 33.7848 86.52 33.7848 82.2432C33.7848 77.9664 30.2256 74.4937 25.8408 74.4937Z" fill="#CCB290"/>
<path d="M83.8512 68.748C76.2528 68.748 70.092 74.7624 70.092 82.176C70.092 89.5896 76.2504 95.5992 83.8512 95.5992C91.452 95.5992 97.6128 89.5896 97.6128 82.176C97.6128 74.7624 91.4496 68.748 83.8512 68.748ZM83.8512 91.1592C78.7656 91.1592 74.6424 87.1344 74.6424 82.176C74.6424 77.2176 78.7656 73.1928 83.8512 73.1928C88.9368 73.1928 93.06 77.2152 93.06 82.176C93.06 87.1368 88.9368 91.1592 83.8512 91.1592Z" fill="#CCB290"/>
<mask id="mask0_22_54" style="mask-type:luminance" maskUnits="userSpaceOnUse" x="3" y="34" width="109" height="62">
<path d="M111.01 34.1758H3.40558V95.6014H111.01V34.1758Z" fill="white"/>
</mask>
<g mask="url(#mask0_22_54)">
<path d="M83.8511 74.4932C79.4615 74.4932 75.9095 77.9588 75.9095 82.2428C75.9095 86.5268 79.4615 89.9924 83.8511 89.9924C88.2407 89.9924 91.7951 86.5196 91.7951 82.2428C91.7951 77.966 88.2383 74.4932 83.8511 74.4932Z" fill="#CCB290"/>
<path d="M110.438 79.4062C106.85 79.423 103.258 79.5527 99.6647 79.6127C99.8135 80.4719 99.9071 81.3479 99.9071 82.2431C99.9071 83.0687 99.8255 83.8727 99.6959 84.6647C103.176 84.6191 106.656 84.5447 110.124 84.4031C110.707 84.3791 111.149 83.6375 110.964 83.2223C110.993 83.0807 111.007 82.9271 111.01 82.7639V82.6439C111 82.1231 110.885 81.5159 110.743 80.9279C110.674 80.4311 110.563 79.915 110.438 79.4062Z" fill="#CCB290"/>
<path d="M56.268 34.1758H55.2528C46.548 34.2166 36.024 35.2678 33.1272 40.0894C30.7488 44.0326 28.5144 48.0934 26.2008 52.0774C24.9648 54.2014 23.736 56.3326 22.6512 58.5286C22.4976 58.8334 22.2576 59.2414 21.9504 59.6998C17.304 60.2206 12.792 61.4182 9.73676 64.2478C7.63196 66.1846 6.82796 69.6838 6.13436 72.3982C5.60636 73.855 5.15036 75.3382 4.73756 76.8094C4.56236 77.3398 4.38956 77.8846 4.23596 78.4222H10.284C12.0312 71.623 18.324 66.5782 25.8408 66.5782C34.704 66.5782 41.8944 73.591 41.8944 82.2406C41.8944 83.0158 41.8176 83.7694 41.7024 84.5206C46.8768 84.4486 52.0488 84.379 57.204 84.3742C60.792 84.3766 64.3824 84.4102 67.9752 84.4582C67.8696 83.7358 67.7952 82.999 67.7952 82.243C67.7952 73.591 74.9832 66.5806 83.8488 66.5806C91.2816 66.5806 97.5216 71.5198 99.3504 78.211C102.917 78.1606 106.481 78.0286 110.047 77.9998C109.927 77.6062 109.802 77.2078 109.668 76.8166C109.262 75.343 108.799 73.8622 108.274 72.4054C107.578 69.691 106.778 66.1918 104.674 64.255C101.611 61.4254 97.1016 60.2278 92.4528 59.707C92.148 59.2486 91.9056 58.8406 91.7568 58.5358C90.672 56.3398 89.4456 54.2062 88.2072 52.0846C85.896 48.1006 83.8296 43.939 81.2808 40.0966C78.348 35.6662 71.844 34.6342 66.0792 34.567C64.0488 34.435 60.4128 34.2022 56.2608 34.183M57.9816 60.3118V36.0934C57.9816 36.0934 59.1792 36.0334 60.9912 36.0334C65.808 36.0334 74.9592 36.451 77.4096 39.5158C80.784 43.7278 83.8848 60.3094 83.8848 60.3094H57.9816V60.3118ZM30.5592 60.3118C30.5592 60.3118 33.6648 43.7302 37.0368 39.5182C39.4872 36.4534 48.6432 36.0358 53.46 36.0358C55.2672 36.0358 56.4648 36.0958 56.4648 36.0958V60.3142H30.5592V60.3118ZM85.5744 59.983C85.5744 59.983 82.7424 46.1638 79.704 40.7686C79.704 40.7686 81.0576 41.6878 82.8096 44.7814C84.564 47.8774 91.176 59.983 91.176 59.983H85.5768H85.5744ZM23.2752 59.983C23.2752 59.983 29.8896 47.875 31.644 44.7814C33.396 41.6878 34.7448 40.7686 34.7448 40.7686C31.7064 46.1662 28.8768 59.983 28.8768 59.983H23.2752ZM50.244 64.5742C49.3224 64.5742 49.7952 63.1582 50.5488 63.1582H55.5408C56.4552 63.1582 55.9896 64.5742 55.2312 64.5742H50.2416H50.244Z" fill="#CCB290"/>
<path d="M9.99357 79.8383H3.87357C3.78717 80.2031 3.71757 80.5703 3.66477 80.9255C3.47277 81.7511 3.32397 82.6031 3.45597 83.2199C3.26637 83.6351 3.70557 84.3767 4.29597 84.4007C6.18957 84.4799 8.08797 84.5303 9.98397 84.5759C9.86877 83.8127 9.78477 83.0375 9.78477 82.2383C9.78477 81.4391 9.87117 80.6231 9.99357 79.8359" fill="#CCB290"/>
</g>
</svg>
