<svg width="107" height="107" viewBox="0 0 107 107" fill="none" xmlns="http://www.w3.org/2000/svg">
<path d="M19.581 29.9385L28.0105 30.0005L27.8542 51.3749L79.0302 51.7494L79.1864 30.375L87.6159 30.4371L87.7036 39.0185L96.1331 39.0806L96.0411 51.7237L104.62 51.9377L104.558 60.3671L95.9769 60.4549L95.8848 73.098L87.4554 73.0359L87.2414 81.6152L78.8119 81.5531L78.9681 60.1788L27.7922 59.8043L27.636 81.1786L19.2065 81.1166L19.1188 72.5352L10.6893 72.4731L10.7813 59.83L2.20206 59.616L2.26412 51.1865L10.8455 51.0988L10.9375 38.4557L19.367 38.5177L19.581 29.9385Z" fill="#C9B18B"/>
</svg>
