<svg width="97" height="97" viewBox="0 0 97 97" fill="none" xmlns="http://www.w3.org/2000/svg">
<path d="M1.6684 51.8077V43.293H10.2898C11.283 34.2817 14.938 26.6187 21.2527 20.304C27.5674 13.9893 35.2304 10.3344 44.2417 9.34109V4.97803H52.7564V9.34109C61.7677 10.3344 69.4307 13.9893 75.7454 20.304C82.0601 26.6187 85.715 34.2817 86.7083 43.293H95.3297V51.8077H1.6684ZM19.0178 43.293H77.9822C76.9889 35.985 73.7064 29.8993 68.1367 25.0396C62.5669 20.1799 56.0214 17.749 48.5 17.749C40.9786 17.749 34.4331 20.1799 28.8633 25.0396C23.2936 29.8993 20.0111 35.985 19.0178 43.293ZM58.6113 51.8077H31.4707V77.3517H55.0999C56.5898 77.3517 58.0273 77.1033 59.4106 76.6067C60.7938 76.1101 62.0528 75.3651 63.1897 74.3718L80.8573 59.7908C80.2888 59.2224 79.6506 58.7975 78.9405 58.5143C78.2305 58.231 77.4855 58.0176 76.7057 57.876C75.499 57.6626 74.3292 57.6995 73.1943 57.9827C72.0594 58.2659 70.9943 58.7994 70.001 59.5793L58.5065 68.8389H39.9873V60.3243H55.5267L60.2098 56.4928C60.5649 56.2794 60.8306 55.9961 61.0072 55.6411C61.1837 55.2861 61.273 54.8962 61.273 54.4713C61.273 53.7613 61.0072 53.1405 60.4756 52.6089C59.9441 52.0773 59.3233 51.8116 58.6132 51.8116L58.6113 51.8077ZM22.956 51.8077H14.4414V81.61H22.956V51.8077ZM22.956 90.1227H14.4414C12.0998 90.1227 10.0958 89.2885 8.42736 87.622C6.75896 85.9556 5.9267 83.9496 5.9267 81.608V51.8057C5.9267 49.4642 6.7609 47.4601 8.42736 45.7917C10.0958 44.1233 12.0998 43.2911 14.4414 43.2911H58.6113C64.6427 43.2911 70.4608 44.3193 76.0674 46.3776C81.6721 48.436 86.1787 51.9124 89.5853 56.809L92.4585 61.1721L68.7245 80.9698C66.8078 82.6013 64.6796 83.8254 62.338 84.6422C59.9964 85.4589 57.5831 85.8663 55.0999 85.8663H30.3009C29.521 87.1428 28.4908 88.173 27.2143 88.9529C25.9378 89.7327 24.5177 90.1227 22.956 90.1227Z" fill="#C9B18B"/>
</svg>
