<svg width="97" height="97" viewBox="0 0 97 97" fill="none" xmlns="http://www.w3.org/2000/svg">
<path d="M2.55692 79.5243V51.9589C2.55692 49.8908 2.9779 48.0148 3.81986 46.3309C4.66182 44.647 5.77344 43.1532 7.15084 41.8514V28.9873C7.15084 25.1578 8.49138 21.9044 11.1705 19.2233C13.8497 16.5442 17.105 15.2036 20.9345 15.2036H39.3122C41.0737 15.2036 42.7188 15.5295 44.2514 16.1794C45.7821 16.8313 47.2002 17.7295 48.5019 18.878C49.8037 17.7295 51.2199 16.8293 52.7525 16.1794C54.2831 15.5276 55.9302 15.2036 57.6917 15.2036H76.0693C79.8989 15.2036 83.1523 16.5442 85.8334 19.2233C88.5144 21.9024 89.853 25.1578 89.853 28.9873V41.8514C91.2304 43.1532 92.3421 44.647 93.184 46.3309C94.026 48.0148 94.447 49.8908 94.447 51.9589V79.5243H85.2591V70.3365H11.7448V79.5243H2.55692ZM53.0939 38.1732H80.6594V28.9854C80.6594 27.6836 80.219 26.5934 79.3382 25.7126C78.4575 24.8318 77.3672 24.3915 76.0655 24.3915H57.6878C56.3861 24.3915 55.2958 24.8318 54.4151 25.7126C53.5343 26.5934 53.0939 27.6836 53.0939 28.9854V38.1732ZM16.3387 38.1732H43.9041V28.9854C43.9041 27.6836 43.4638 26.5934 42.583 25.7126C41.7022 24.8318 40.612 24.3915 39.3102 24.3915H20.9326C19.6309 24.3915 18.5406 24.8318 17.6598 25.7126C16.7791 26.5934 16.3387 27.6836 16.3387 28.9854V38.1732ZM11.7448 61.1467H85.2552V51.9589C85.2552 50.6571 84.8149 49.5668 83.9341 48.6861C83.0533 47.8053 81.9631 47.3649 80.6613 47.3649H16.3387C15.0369 47.3649 13.9467 47.8053 13.0659 48.6861C12.1851 49.5668 11.7448 50.6571 11.7448 51.9589V61.1467Z" fill="#C9B18B"/>
</svg>
