<svg width="94" height="94" viewBox="0 0 94 94" fill="none" xmlns="http://www.w3.org/2000/svg">
<path d="M4.99518 87.3355V78.9338C7.65538 78.9338 9.65006 78.2344 10.9811 76.8338C12.3121 75.4332 14.9366 74.7339 18.8564 74.7339C22.7762 74.7339 25.4721 75.4332 26.9423 76.8338C28.4125 78.2344 30.4071 78.9338 32.9282 78.9338C35.4493 78.9338 37.444 78.2344 38.9141 76.8338C40.3843 75.4332 43.0802 74.7339 47 74.7339C50.9198 74.7339 53.6157 75.4332 55.0859 76.8338C56.5561 78.2344 58.5507 78.9338 61.0718 78.9338C63.5929 78.9338 65.5876 78.2344 67.0577 76.8338C68.5279 75.4332 71.2238 74.7339 75.1436 74.7339C79.0634 74.7339 81.6898 75.4332 83.0189 76.8338C84.35 78.2344 86.3447 78.9338 89.0049 78.9338V87.3355C84.8745 87.3355 82.1617 86.6361 80.8663 85.2355C79.571 83.8349 77.6628 83.1356 75.1436 83.1356C72.6244 83.1356 70.6279 83.8349 69.1577 85.2355C67.6875 86.6361 64.9916 87.3355 61.0718 87.3355C57.152 87.3355 54.4561 86.6361 52.9859 85.2355C51.5158 83.8349 49.5211 83.1356 47 83.1356C44.4789 83.1356 42.4843 83.8349 41.0141 85.2355C39.5439 86.6361 36.848 87.3355 32.9282 87.3355C29.0084 87.3355 26.3125 86.6361 24.8423 85.2355C23.3722 83.8349 21.3775 83.1356 18.8564 83.1356C16.3353 83.1356 14.429 83.8349 13.1337 85.2355C11.8384 86.6361 9.12554 87.3355 4.99518 87.3355ZM4.99518 68.434V60.0323C7.65538 60.0323 9.65006 59.3329 10.9811 57.9323C12.3121 56.5317 14.9366 55.8323 18.8564 55.8323C22.7762 55.8323 25.4891 56.5317 26.9949 57.9323C28.5008 59.3329 30.4786 60.0323 32.9282 60.0323C35.3779 60.0323 37.444 59.3329 38.9141 57.9323C40.3843 56.5317 43.0802 55.8323 47 55.8323C50.9198 55.8323 53.6157 56.5317 55.0859 57.9323C56.5561 59.3329 58.5507 60.0323 61.0718 60.0323C63.5929 60.0323 65.5876 59.3329 67.0577 57.9323C68.5279 56.5317 71.2238 55.8323 75.1436 55.8323C79.0634 55.8323 81.6898 56.5317 83.0189 57.9323C84.35 59.3329 86.3447 60.0323 89.0049 60.0323V68.434C84.8745 68.434 82.1617 67.7346 80.8663 66.334C79.571 64.9334 77.6628 64.2341 75.1436 64.2341C72.6244 64.2341 70.6805 64.9334 69.3156 66.334C67.9507 67.7346 65.2022 68.434 61.0718 68.434C56.9415 68.434 54.3677 67.7346 52.9333 66.334C51.4989 64.9334 49.5211 64.2341 47 64.2341C44.3398 64.2341 42.3621 64.9334 41.0667 66.334C39.7714 67.7346 37.0586 68.434 32.9282 68.434C28.7979 68.434 26.0493 67.7346 24.6844 66.334C23.3195 64.9334 21.3756 64.2341 18.8564 64.2341C16.3372 64.2341 14.429 64.9334 13.1337 66.334C11.8384 67.7346 9.12554 68.434 4.99518 68.434ZM25.5774 47.0114L39.5439 33.0449L35.344 28.8449C33.0335 26.5344 30.5839 24.8537 27.9932 23.8047C25.4026 22.7556 22.2179 22.2292 18.4372 22.2292V11.7275C23.688 11.7275 28.0289 12.3047 31.4581 13.4609C34.8891 14.6152 38.2486 16.8393 41.5386 20.1293L68.4226 47.0133C67.2326 47.7841 66.0783 48.3951 64.9578 48.8519C63.8373 49.3087 62.542 49.5343 61.0718 49.5343C58.5507 49.5343 56.5561 48.835 55.0859 47.4344C53.6157 46.0338 50.9198 45.3344 47 45.3344C43.0802 45.3344 40.3843 46.0338 38.9141 47.4344C37.444 48.835 35.4493 49.5343 32.9282 49.5343C31.4581 49.5343 30.1627 49.3069 29.0423 48.8519C27.9218 48.3969 26.7675 47.7841 25.5774 47.0133V47.0114ZM66.7419 11.7275C69.6822 11.7275 72.1676 12.7597 74.198 14.8258C76.2284 16.8919 77.2436 19.3585 77.2436 22.2292C77.2436 25.1 76.2284 27.6549 74.198 29.6853C72.1676 31.7157 69.6822 32.7309 66.7419 32.7309C63.8016 32.7309 61.3162 31.7157 59.2858 29.6853C57.2554 27.6549 56.2402 25.1695 56.2402 22.2292C56.2402 19.2889 57.2554 16.8919 59.2858 14.8258C61.3162 12.7597 63.8016 11.7275 66.7419 11.7275Z" fill="#C9B18B"/>
</svg>
