<svg width="97" height="97" viewBox="0 0 97 97" fill="none" xmlns="http://www.w3.org/2000/svg">
<path d="M48.5 91.0948C38.9028 91.0948 30.7296 87.7755 23.9823 81.1368C17.235 74.4981 13.8613 66.416 13.8613 56.8887C13.8613 52.3433 14.746 47.9938 16.5133 43.8442C18.2806 39.6945 20.7891 36.0318 24.0366 32.8579L48.5 8.82715L72.9634 32.8579C76.211 36.0337 78.7194 39.6964 80.4867 43.8442C82.2541 47.9938 83.1387 52.3413 83.1387 56.8887C83.1387 66.4141 79.7651 74.4962 73.0177 81.1368C66.2704 87.7755 58.0972 91.0948 48.5 91.0948ZM22.5215 56.8887H74.4805C74.4805 53.4976 73.8306 50.2675 72.5327 47.2004C71.2329 44.1332 69.357 41.4444 66.9048 39.1358L48.5039 20.9502L30.103 39.1358C27.6489 41.4444 25.7729 44.1332 24.4751 47.2004C23.1753 50.2675 22.5273 53.4976 22.5273 56.8887H22.5215Z" fill="#C9B18B"/>
</svg>
