<svg width="11" height="17" viewBox="0 0 11 17" fill="none" xmlns="http://www.w3.org/2000/svg">
<path d="M5.5 0.705505C2.45929 0.705505 0 3.23539 0 6.3634C0 10.6068 5.5 16.8709 5.5 16.8709C5.5 16.8709 11 10.6068 11 6.3634C11 3.23539 8.54071 0.705505 5.5 0.705505ZM1.57143 6.3634C1.57143 4.13257 3.33143 2.32205 5.5 2.32205C7.66857 2.32205 9.42857 4.13257 9.42857 6.3634C9.42857 8.69122 7.16571 12.1749 5.5 14.3491C3.86571 12.191 1.57143 8.66697 1.57143 6.3634Z" fill="white"/>
<path d="M5.5 8.24871C6.32843 8.24871 7 7.28386 7 6.09365C7 4.90345 6.32843 3.9386 5.5 3.9386C4.67157 3.9386 4 4.90345 4 6.09365C4 7.28386 4.67157 8.24871 5.5 8.24871Z" fill="white"/>
</svg>
