<svg width="97" height="97" viewBox="0 0 97 97" fill="none" xmlns="http://www.w3.org/2000/svg">
<path d="M65.0288 91.0964H61.5465C55.1659 91.0964 49.9744 86.0311 49.9744 79.8056V75.3029H65.0288C69.4908 75.3029 73.1225 78.8473 73.1225 83.2006C73.1225 87.554 69.4908 91.0964 65.0288 91.0964ZM45.6347 60.9585C45.6347 59.3251 46.9868 57.9981 48.6591 57.9981C50.3314 57.9981 51.6913 59.3231 51.6913 60.9585C51.6913 62.594 50.3333 63.9151 48.6591 63.9151C46.9849 63.9151 45.6347 62.5901 45.6347 60.9585ZM65.0269 72.744H49.9725V68.5362C51.542 68.09 52.77 66.8775 53.1948 65.3429C53.3927 64.6251 54.0678 64.1382 54.8283 64.1382C56.5472 64.1382 58.0992 63.4611 59.2205 62.3631C60.3437 61.267 61.0421 59.7519 61.0421 58.0796V54.9736H36.2877V58.0796C36.2877 61.4261 39.0658 64.1382 42.4919 64.1382C42.876 64.1382 43.2329 64.2624 43.522 64.4719C43.8091 64.6833 44.0303 64.984 44.1312 65.3429C44.558 66.8775 45.7879 68.09 47.3516 68.5362V72.744H33.2633C32.6405 70.2492 30.3416 68.3984 27.5927 68.3984V69.7099H22.4109C21.6834 69.7099 21.0995 70.2841 21.0995 70.9903C21.0995 71.6964 21.6834 72.2707 22.4109 72.2707H27.5927V75.7685H22.4109C21.6834 75.7685 21.0995 76.3389 21.0995 77.0489C21.0995 77.7589 21.6834 78.3293 22.4109 78.3293H27.5927V79.8018C30.3998 79.8018 32.7395 77.8734 33.304 75.3029H47.3535V79.8018C47.3535 87.4434 53.7206 93.6553 61.5543 93.6553H65.0308C70.9439 93.6553 75.7493 88.9683 75.7493 83.2006C75.7493 77.433 70.9439 72.746 65.0308 72.746" fill="#C9B18B"/>
<path d="M46.3699 27.7828L43.5802 42.5967L60.2816 21.0064H46.5581L51.635 18.8763L56.9759 4.70654L37.0424 25.255H51.9086L46.3699 27.7828Z" fill="#C9B18B"/>
</svg>
