<svg width="97" height="97" viewBox="0 0 97 97" fill="none" xmlns="http://www.w3.org/2000/svg">
<path d="M91.3953 82.6985V84.5182C89.7909 87.0033 86.5919 86.8637 83.9341 87.4282V82.1533L80.9465 73.239C80.3238 73.142 80.5352 74.1314 80.5624 74.5233C80.7079 76.7834 82.3646 86.4543 80.5798 87.6144C80.1686 87.8802 76.8997 88.3419 76.5194 88.1053L74.7967 84.5221L73.4542 88.1208L66.4004 87.7852C68.7652 84.0507 70.6587 79.8894 70.874 75.4196L66.3926 82.8711C63.0655 87.2439 57.1563 89.8939 60.4291 81.6024C58.3998 83.4182 53.5692 87.9132 51.1481 84.297C48.7153 80.6712 53.4664 78.6963 55.2124 76.149C52.7273 77.1889 50.5234 78.8631 48.0072 79.8486C46.9984 80.2463 44.8121 81.0902 43.8285 81.0669C42.1038 81.0262 34.8948 77.4333 35.9812 75.4196C36.472 74.5117 49.2915 70.2534 51.6156 69.1806C57.8683 66.2938 63.6339 62.4604 68.2531 57.4067C65.5448 55.9207 67.0348 49.5148 69.6499 48.9328C70.9244 48.6495 78.3993 49.6331 79.9261 50.0328C81.6721 50.4945 82.8535 51.5498 82.8458 53.4006C82.8419 55.9342 82.4112 58.204 79.8679 59.2167C83.5713 65.2074 87.4843 71.138 89.9132 77.7709L91.3934 82.6946L91.3953 82.6985Z" fill="#C9B18B"/>
<path d="M8.5884 43.7608V53.0417C8.5884 53.7848 9.27516 56.6676 9.51766 57.593C10.284 60.534 11.7758 63.8165 14.001 65.9583C14.2901 66.0087 14.2066 65.6382 14.1892 65.4092C13.8768 61.1781 10.7185 49.4547 9.34888 45.0218C9.19756 44.531 9.31784 43.8888 8.5884 43.7608ZM11.7603 31.7541C28.1688 31.6397 44.5851 31.7541 60.9936 31.7541C61.0751 31.7541 61.4185 32.2954 61.5523 32.115C61.4379 27.9983 59.0866 25.3832 54.6828 25.9652C52.7389 26.2212 50.1219 28.5085 48.7483 28.0681C47.3612 26.7334 47.8424 24.8244 46.9577 22.8844C43.9818 16.366 34.3264 15.6482 30.0681 21.2335C29.5326 21.9338 28.4695 24.3181 28.1164 24.4384C26.8748 24.8613 25.4024 23.6178 24.1782 23.2744C19.3438 21.928 13.1105 23.4024 11.3859 28.4813C11.1899 29.0672 10.7166 31.079 10.831 31.5562C11.0231 32.3943 11.706 31.7541 11.7603 31.7541ZM5.60468 45.2158C6.09162 40.6316 7.1916 35.7001 7.98312 31.2691C8.47394 28.5376 8.36336 27.102 10.1423 24.7197C14.001 19.5593 21.1053 19.0685 26.8516 21.1986C31.7113 11.1145 48.2498 13.0448 50.3682 24.1125C53.513 23.3985 55.777 22.4111 59.0439 23.4664C64.2082 25.1348 64.8969 32.1926 65.2461 36.6293L60.3495 57.6861L55.0281 61.5874L62.2566 35.2655C62.1964 35.0696 61.8666 34.6641 61.7425 34.6641H10.6409C10.4527 34.6641 10.0279 35.2636 10.0686 35.5682L18.1487 68.9032C30.0138 71.2486 41.3763 61.0927 44.4027 50.4965C44.7422 49.3092 45.3708 47.732 45.1419 46.5078C44.8431 44.9131 42.1582 44.5872 43.0797 41.2058C44.5599 35.7389 53.8971 38.7304 50.8106 44.3777C50.0093 45.8405 48.2944 46.1974 48.1877 46.3662C48.017 46.632 48.1101 47.8794 47.9626 48.5118C44.75 61.991 33.9326 72.853 19.0295 72.1469C19.6852 79.6275 24.9096 78.9349 31.0788 78.6866L33.5775 81.6063H22.2014C21.6155 81.6063 19.4 80.3278 18.8685 79.7672C16.393 77.154 16.7054 72.7327 15.3241 70.5813C15.0447 70.1467 13.807 69.7277 13.258 69.2252C8.26635 64.6779 6.13236 58.7512 5.60468 52.1338V45.2177V45.2158Z" fill="#C9B18B"/>
<path d="M83.5616 8.82715C86.0274 9.95429 86.3358 11.1241 86.1244 13.6946C85.3212 23.4295 81.0008 34.5768 80.0386 44.5115C78.8823 48.2848 74.787 49.0492 73.5066 45.0101L79.928 11.6518C80.3315 10.2123 81.5964 9.50227 82.8147 8.82909H83.5616V8.82715Z" fill="#C9B18B"/>
</svg>
