<svg width="89" height="89" viewBox="0 0 89 89" fill="none" xmlns="http://www.w3.org/2000/svg">
<path d="M6.23002 15.3151V6.89387H18.8627V15.3151H6.23002ZM19.3896 37.7377L13.3892 31.8424L22.3372 22.8943L28.3376 28.7897L19.3896 37.7377ZM44.1298 27.9477C38.3038 27.9477 33.3394 25.8954 29.233 21.7889C25.1265 17.6825 23.0742 12.718 23.0742 6.89209H31.4953C31.4953 10.4005 32.7235 13.3837 35.1799 15.8401C37.6363 18.2965 40.6196 19.5248 44.128 19.5248C47.6364 19.5248 50.6197 18.2965 53.0761 15.8401C55.5325 13.3837 56.7607 10.4005 56.7607 6.89209H65.1818C65.1818 12.718 63.1295 17.6825 59.023 21.7889C54.9166 25.8954 49.9522 27.9477 44.1262 27.9477H44.1298ZM39.9183 44.7919V32.1592H48.3395V44.7919H39.9183ZM68.87 37.7377L60.027 28.7897L65.9223 22.8943L74.8704 31.7373L68.87 37.7377ZM69.3969 15.3151V6.89387H82.0295V15.3151H69.3969ZM2.02032 82.6898V74.2686C4.68676 74.2686 6.66968 73.5673 7.96908 72.1629C9.2667 70.7585 11.9865 70.0572 16.1286 70.0572C20.2707 70.0572 22.9887 70.7585 24.2881 72.1629C25.5857 73.5673 27.4992 74.2686 30.0251 74.2686C32.6915 74.2686 34.6744 73.5673 35.9738 72.1629C37.2714 70.7585 39.9913 70.0572 44.1333 70.0572C48.2754 70.0572 50.8528 70.7585 52.2929 72.1629C53.7311 73.5673 55.714 74.2686 58.2416 74.2686C60.9081 74.2686 62.8554 73.5673 64.0836 72.1629C65.3118 70.7585 67.996 70.0572 72.1363 70.0572C76.2766 70.0572 78.9964 70.7585 80.2958 72.1629C81.5934 73.5673 83.5764 74.2686 86.2446 74.2686V82.6898C82.2449 82.6898 79.5251 81.9885 78.0851 80.5841C76.6468 79.1797 74.6639 78.4784 72.1363 78.4784C69.6087 78.4784 67.697 79.1797 66.3994 80.5841C65.1017 81.9885 62.3819 82.6898 58.2398 82.6898C54.0978 82.6898 51.5203 81.9885 50.0803 80.5841C48.6421 79.1797 46.6592 78.4784 44.1316 78.4784C41.4651 78.4784 39.4822 79.1797 38.1828 80.5841C36.8852 81.9885 34.1653 82.6898 30.0233 82.6898C25.8812 82.6898 23.1988 81.9885 21.9706 80.5841C20.7424 79.1797 18.795 78.4784 16.1286 78.4784C13.4622 78.4784 11.4792 79.1797 10.1798 80.5841C8.88222 81.9885 6.16238 82.6898 2.02032 82.6898ZM2.02032 65.8457V57.4245C4.68676 57.4245 6.66968 56.7232 7.96908 55.3188C9.2667 53.9143 11.9865 53.213 16.1286 53.213C20.2707 53.213 22.8143 53.9143 24.1813 55.3188C25.5501 56.7232 27.4975 57.4245 30.0233 57.4245C32.6897 57.4245 34.6726 56.7232 35.972 55.3188C37.2697 53.9143 39.9895 53.213 44.1316 53.213C48.2736 53.213 50.8333 53.9143 52.2377 55.3188C53.6421 56.7232 55.5716 57.4245 58.028 57.4245C60.6945 57.4245 62.6774 56.7232 63.9768 55.3188C65.2744 53.9143 67.9942 53.213 72.1363 53.213C76.2784 53.213 78.8558 53.9143 80.2958 55.3188C81.7341 56.7232 83.717 57.4245 86.2446 57.4245V65.8457C82.1043 65.8457 79.3489 65.1444 77.98 63.7399C76.6112 62.3355 74.6639 61.6342 72.1381 61.6342C69.6123 61.6342 67.6988 62.3355 66.4011 63.7399C65.1035 65.1444 62.3837 65.8457 58.2416 65.8457C54.0996 65.8457 51.5221 65.1444 50.0821 63.7399C48.6439 62.3355 46.6609 61.6342 44.1333 61.6342C41.4669 61.6342 39.5196 62.3355 38.2914 63.7399C37.0632 65.1444 34.3789 65.8457 30.2387 65.8457C26.0984 65.8457 23.3429 65.1444 21.9741 63.7399C20.6053 62.3355 18.658 61.6342 16.1322 61.6342C13.6063 61.6342 11.6234 62.3355 10.1834 63.7399C8.74516 65.1444 6.02532 65.8457 2.02388 65.8457H2.02032Z" fill="#C9B18B"/>
</svg>
