<svg width="97" height="97" viewBox="0 0 97 97" fill="none" xmlns="http://www.w3.org/2000/svg">
<path d="M67.0716 14.6196H66.5925C59.1293 14.6875 52.4305 17.8497 47.7725 22.8588C43.1107 17.8497 36.4099 14.6875 28.9487 14.6196H28.4695C14.4646 14.7477 3.12341 25.7901 2.97403 39.4574V40.0006C3.04969 47.264 6.29143 53.7863 11.415 58.3201H11.3723L39.3665 85.6372C42.1213 88.3202 44.8703 91.0033 47.6212 91.0964H47.9141C50.6651 91.0033 53.414 88.3202 56.1688 85.6372L84.165 58.3201H84.1223C89.3099 53.7261 92.5632 47.0991 92.5632 39.729C92.5632 25.9395 81.1716 14.7477 67.0677 14.6196" fill="#E4DAC4"/>
<path d="M86.6404 55.7477H67.7778C66.7108 55.7477 65.7272 55.1889 65.2015 54.2849L57.0826 40.3169L45.1535 67.0152C44.7674 67.8882 43.9623 68.5148 43.0137 68.6972L42.4375 68.7515C41.679 68.7515 40.9379 68.4682 40.383 67.9425L25.22 53.6602H7.29828C8.47586 55.3713 9.85326 56.9408 11.413 58.3182H11.3703L39.3645 85.6314C42.1659 88.3649 44.9673 91.0945 47.7686 91.0945C50.57 91.0945 53.3675 88.3649 56.1688 85.6314L84.163 58.3182H84.1242C85.0224 57.5208 85.8625 56.6614 86.6365 55.7457" fill="#C9B18B"/>
<path d="M5.04401 47.879H26.4151C27.1814 47.879 27.9244 48.168 28.4695 48.688L41.4248 60.8925L54.0193 32.7101C54.4675 31.7013 55.4607 31.032 56.5782 30.9719C57.6917 30.9214 58.7568 31.484 59.3078 32.4385L69.4986 49.9664H90.3284C91.7659 46.8391 92.5652 43.3724 92.5652 39.7232C92.5652 25.8561 81.0416 14.6177 66.8291 14.6177C59.2728 14.6177 52.4751 17.7915 47.7686 22.851C43.0603 17.7915 36.2625 14.6177 28.7062 14.6177C14.4918 14.6177 2.97015 25.8561 2.97015 39.7232C2.97015 42.6041 3.47455 45.3725 4.39411 47.9488L5.04207 47.877L5.04401 47.879Z" fill="#C9B18B"/>
</svg>
